<svg width="131" height="120" viewBox="0 0 131 120" fill="none" xmlns="http://www.w3.org/2000/svg">
<path d="M117.933 44.5501V40.6662C117.933 39.8424 118.527 39.2539 119.357 39.2539C120.188 39.2539 120.781 39.8424 120.781 40.6662V44.5501C120.781 45.3739 120.188 45.9624 119.357 45.9624C118.527 45.9624 117.933 45.2562 117.933 44.5501ZM119.357 55.8486C120.188 55.8486 120.781 55.2601 120.781 54.4363V50.5524C120.781 49.7286 120.188 49.1401 119.357 49.1401C118.527 49.1401 117.933 49.7286 117.933 50.5524V54.4363C117.933 55.2601 118.527 55.8486 119.357 55.8486ZM122.324 48.9047H126.24C127.071 48.9047 127.664 48.3163 127.664 47.4924C127.664 46.6686 127.071 46.0801 126.24 46.0801H122.324C121.493 46.0801 120.9 46.6686 120.9 47.4924C121.019 48.3163 121.612 48.9047 122.324 48.9047ZM112.356 48.9047H116.272C117.103 48.9047 117.696 48.3163 117.696 47.4924C117.696 46.6686 117.103 46.0801 116.272 46.0801H112.356C111.525 46.0801 110.932 46.6686 110.932 47.4924C110.932 48.3163 111.525 48.9047 112.356 48.9047Z" fill="#0A6DC9"/>
<path d="M125.884 56.7901V55.2601C125.884 54.7894 126.24 54.4363 126.715 54.4363C127.19 54.4363 127.546 54.7894 127.546 55.2601V56.7901C127.546 57.2609 127.19 57.614 126.715 57.614C126.24 57.614 125.884 57.2609 125.884 56.7901ZM126.715 58.3201C126.24 58.3201 125.884 58.6732 125.884 59.144V60.674C125.884 61.1448 126.24 61.4979 126.715 61.4979C127.19 61.4979 127.546 61.1448 127.546 60.674V59.144C127.546 58.7909 127.19 58.3201 126.715 58.3201ZM127.071 57.9671C127.071 58.4378 127.427 58.7909 127.902 58.7909H129.444C129.919 58.7909 130.275 58.4378 130.275 57.9671C130.275 57.4963 129.919 57.1432 129.444 57.1432H127.902C127.427 57.1432 127.071 57.4963 127.071 57.9671ZM123.985 58.7909H125.528C126.003 58.7909 126.359 58.4378 126.359 57.9671C126.359 57.4963 126.003 57.1432 125.528 57.1432H123.985C123.511 57.1432 123.155 57.4963 123.155 57.9671C123.155 58.4378 123.511 58.7909 123.985 58.7909Z" fill="#0A6DC9"/>
<path d="M12.6722 67.6181C13.3842 67.6181 13.9775 67.3828 14.4522 66.912C14.9269 66.4412 15.1642 65.8528 15.1642 65.1466C15.1642 64.4404 14.9269 63.852 14.4522 63.3812C13.9775 62.9104 13.3842 62.675 12.6722 62.675C11.2481 62.675 10.1801 63.852 10.1801 65.1466C10.0614 66.4412 11.2481 67.6181 12.6722 67.6181Z" fill="#0A6DC9"/>
<path d="M114.729 63.7344C113.78 63.7344 112.83 63.8521 112 63.9698V71.149C112.83 70.7959 113.78 70.6782 114.729 70.6782C119.12 70.6782 122.799 74.209 122.799 78.6814C122.799 83.036 119.12 86.6845 114.729 86.6845C113.78 86.6845 112.83 86.5668 112 86.2137V89.5091C112 90.8037 111.644 91.9807 111.169 93.1576C112.356 93.393 113.542 93.6284 114.848 93.6284C123.155 93.6284 129.919 86.9199 129.919 78.6814C129.682 70.4429 123.036 63.7344 114.729 63.7344Z" fill="#0A6DC9"/>
<path d="M66.5486 90.4503C66.5486 91.7449 65.4806 92.8041 64.1752 92.8041C62.8698 92.8041 61.8018 91.7449 61.8018 90.4503C61.8018 89.1557 62.8698 88.0964 64.1752 88.0964C65.4806 88.0964 66.5486 89.1557 66.5486 90.4503Z" fill="#0A6DC9"/>
<path d="M7.68804 58.2031C11.3668 58.2031 14.3336 55.2608 14.3336 51.6123C14.3336 47.9638 11.3668 45.0215 7.68804 45.0215C4.00925 45.0215 1.04248 47.9638 1.04248 51.6123C1.04248 53.3777 1.7545 55.0254 2.94121 56.32C4.24659 57.4969 5.90798 58.2031 7.68804 58.2031ZM7.68804 48.0815C9.70544 48.0815 11.2482 49.6115 11.2482 51.6123C11.2482 53.4954 9.70544 55.1431 7.68804 55.1431C6.73868 55.1431 5.78931 54.79 5.19596 54.0838C4.48393 53.3777 4.12792 52.5538 4.12792 51.6123C4.12792 49.6115 5.67064 48.0815 7.68804 48.0815Z" fill="#0A6DC9"/>
<path d="M100.488 45.4915H87.4347L88.74 47.1392H99.6577V84.4478H28.3367V47.1392H39.373L40.6784 45.4915H27.6246C27.15 45.4915 26.7939 45.8445 26.7939 46.3153V85.2716C26.7939 85.507 26.9126 85.7424 27.0313 85.8601C27.15 85.9778 27.3873 86.0955 27.6246 86.0955H100.488C100.963 86.0955 101.319 85.7424 101.319 85.2716V46.3153C101.319 45.8445 100.963 45.4915 100.488 45.4915Z" fill="#0A6DC9"/>
<path d="M117.933 109.517H109.27C109.033 108.575 108.558 107.634 107.846 106.927C106.778 105.868 105.473 105.397 104.049 105.397H91.2324C89.8083 105.397 88.5029 105.986 87.4349 106.927C86.7229 107.634 86.2482 108.575 86.0108 109.517H81.264C81.0267 108.575 80.552 107.634 79.84 106.927C78.7719 105.868 77.4666 105.397 76.0425 105.397H74.8558C74.8558 105.28 74.8558 105.044 74.7371 104.927L72.3637 97.7473L99.5393 97.6296C101.794 97.6296 103.811 96.8058 105.354 95.2758C106.897 93.7458 107.728 91.6273 107.728 89.5088V47.2571C107.728 42.6671 104.049 39.0186 99.4206 39.0186H83.9934L84.9428 42.1963H99.4206C102.269 42.1963 104.523 44.4324 104.523 47.2571V89.5088C104.523 90.8034 104.049 92.0981 102.981 93.0396C101.913 93.9811 100.726 94.5696 99.4206 94.5696H28.4555C25.6074 94.5696 23.3527 92.3334 23.3527 89.5088V47.1394C23.3527 45.8448 23.8274 44.5501 24.8954 43.6086C25.8448 42.6671 27.1502 42.0786 28.4555 42.0786H43.2894L44.2388 38.9009H28.4555C26.2008 38.9009 24.1834 39.7247 22.6407 41.2547C21.098 42.7847 20.2673 44.9032 20.2673 47.0217V89.3911C20.2673 93.9811 23.9461 97.6296 28.5742 97.6296H55.7498L54.4444 101.513C54.3258 102.337 54.8004 103.279 55.6311 103.514C55.7498 103.514 55.9872 103.632 56.1058 103.632C56.8178 103.632 57.4112 103.161 57.6485 102.573L59.1913 97.6296H69.0409L71.533 105.28H18.0125C16.5885 105.28 15.2831 105.868 14.2151 106.81C13.503 107.516 13.0283 108.457 12.791 109.399H8.28152C5.55209 109.399 3.41602 111.517 3.41602 114.224C3.41602 116.931 5.55209 119.05 8.28152 119.05H23.1154C23.9461 119.05 24.7767 118.344 24.7767 117.402C24.7767 116.578 24.0647 115.754 23.1154 115.754H8.28152C7.33215 115.754 6.62013 115.048 6.62013 114.107C6.62013 113.165 7.33215 112.459 8.28152 112.459H117.815C118.764 112.459 119.476 113.165 119.476 114.107C119.476 114.577 119.357 114.93 119.001 115.284C118.645 115.637 118.289 115.754 117.815 115.754H101.794C100.963 115.754 100.133 116.46 100.133 117.402C100.133 118.226 100.845 119.05 101.794 119.05H117.815C119.12 119.05 120.307 118.579 121.256 117.637C122.205 116.696 122.68 115.519 122.68 114.224C122.799 111.635 120.544 109.517 117.933 109.517ZM14.4524 109.517C14.6897 108.928 14.9271 108.457 15.4018 107.987C16.1138 107.28 17.0632 106.927 18.0125 106.927H72.9571C73.0757 106.927 73.1944 106.927 73.1944 106.927C73.3131 106.927 73.4317 106.927 73.4317 106.927H75.9238C76.8732 106.927 77.8226 107.28 78.5346 107.987C79.0093 108.457 79.2466 108.928 79.484 109.517H14.4524ZM87.5536 109.517C87.7909 108.928 88.0283 108.457 88.5029 107.987C89.215 107.28 90.1643 106.927 91.1137 106.927H103.93C104.879 106.927 105.829 107.28 106.541 107.987C107.016 108.457 107.253 108.928 107.49 109.517H87.5536Z" fill="#0A6DC9"/>
<path d="M56.2243 62.3221H57.8857C58.3603 62.3221 58.835 61.969 58.835 61.3805V59.7328C58.835 59.262 58.479 58.7913 57.8857 58.7913H56.2243C55.7496 58.7913 55.2749 59.1443 55.2749 59.7328V61.3805C55.3936 61.969 55.7496 62.3221 56.2243 62.3221Z" fill="#0A6DC9"/>
<path d="M63.3449 62.3221H65.0063C65.4809 62.3221 65.9556 61.969 65.9556 61.3805V59.7328C65.9556 59.262 65.5996 58.7913 65.0063 58.7913H63.3449C62.8702 58.7913 62.3955 59.1443 62.3955 59.7328V61.3805C62.3955 61.969 62.8702 62.3221 63.3449 62.3221Z" fill="#0A6DC9"/>
<path d="M61.8018 48.552H66.5487C68.4474 48.552 70.1088 47.022 70.1088 45.0212V40.3135C70.1088 38.4304 68.5661 36.7827 66.5487 36.7827H61.8018C59.9031 36.7827 58.2417 38.3127 58.2417 40.3135V45.0212C58.2417 46.9043 59.7844 48.552 61.8018 48.552Z" fill="#0A6DC9"/>
<path d="M85.5362 53.2598L84.1121 50.4352C83.0441 48.5521 81.6201 46.669 80.196 45.2567C80.196 44.7859 80.196 44.4328 80.0773 43.9621L79.9587 41.1374C79.484 35.8412 78.2973 30.6628 76.5172 26.0727C76.5172 25.8373 76.3985 25.7197 76.2799 25.4843C74.6185 20.4235 70.465 13.1265 65.9555 8.88958C65.7182 8.65419 65.3622 8.30111 65.1248 8.06573C64.5315 7.59495 63.7008 7.59495 63.2261 8.06573C58.4793 12.4204 54.4445 18.5404 51.8337 25.7197C51.8337 25.8373 51.8337 25.8373 51.715 25.955C50.0537 30.6628 48.8669 35.8412 48.2736 41.0197L48.0362 43.8444C48.0362 44.3151 48.0363 44.6682 47.9176 45.139C46.2562 46.7867 44.9508 48.6698 43.8828 50.4352L42.4587 53.2598C40.4413 58.2029 39.9666 63.8522 41.3907 69.266C41.5094 69.8545 42.1027 70.3253 42.6961 70.3253C43.2894 70.3253 43.8828 69.8545 44.0014 69.266C44.9508 65.6175 46.7309 62.9106 48.8669 61.0275C49.223 63.146 49.8163 65.1468 50.4097 67.1475C50.647 67.736 51.1217 68.0891 51.715 68.0891H55.6312C55.2752 69.0306 55.1565 69.9722 55.1565 70.9137C55.1565 75.033 58.1233 78.7991 63.2261 80.9176C63.3448 81.0353 63.5821 81.0353 63.8195 81.0353C64.0568 81.0353 64.1755 81.0353 64.4128 80.9176C69.397 78.7991 72.4824 75.033 72.4824 70.9137C72.4824 69.9722 72.3637 69.0306 72.0077 68.0891H75.9239C76.5172 68.0891 77.1106 67.736 77.2292 67.1475C77.8226 65.1468 78.2973 63.146 78.772 61.0275C81.0267 62.9106 82.8068 65.6175 83.6375 69.266C83.7561 69.8545 84.3495 70.3253 85.0615 70.3253C85.7735 70.3253 86.2482 69.8545 86.4856 69.266C88.0283 63.7345 87.6723 58.2029 85.5362 53.2598ZM43.6454 63.4991C43.5268 59.9683 44.2388 56.4375 45.7815 53.2598C45.7815 53.2598 46.8495 50.7882 48.0362 49.4936C48.0362 49.8467 48.0362 50.0821 48.0362 50.4352L48.1549 53.2598C48.2736 54.7898 48.3923 56.3198 48.6296 57.8498C46.6122 59.2621 44.8321 61.1452 43.6454 63.4991ZM64.1755 11.008C67.9729 14.6565 71.4144 20.4235 73.0758 24.8958H55.1565C56.8179 20.4235 60.378 14.5388 64.1755 11.008ZM64.1755 78.093C60.6153 76.4453 58.3606 73.7383 58.3606 70.9137C58.3606 69.9722 58.5979 69.0306 59.0726 68.0891H61.9207C61.2087 70.443 62.5141 72.5614 64.1755 73.2676C65.7182 72.5614 67.1422 70.443 66.4302 68.0891H69.2783C69.753 69.0306 69.9903 69.9722 69.9903 70.9137C69.8717 73.7383 67.7356 76.4453 64.1755 78.093ZM75.0932 65.2645H69.9903H58.2419H53.1391C52.5457 63.2637 52.0711 61.2629 51.715 59.1444C49.8163 47.8459 51.003 36.4297 54.0885 27.6027H74.0251C77.9413 38.7836 78.6533 52.5536 75.0932 65.2645ZM79.6027 57.8498C79.84 56.3198 79.9587 54.7898 80.0773 53.2598L80.196 51.9652L80.3147 50.5529C80.3147 50.1998 80.3147 49.9644 80.3147 49.6113C80.552 49.9644 80.7894 50.1998 81.0267 50.5529L81.7387 51.8475L82.5694 53.3775C84.1121 56.5552 84.8242 60.086 84.7055 63.6168C83.4001 61.1452 81.6201 59.2621 79.6027 57.8498Z" fill="#0A6DC9"/>
<path d="M70.3463 62.3221H72.0077C72.4824 62.3221 72.9571 61.969 72.9571 61.3805V59.7328C72.9571 59.262 72.6011 58.7913 72.0077 58.7913H70.3463C69.8717 58.7913 69.397 59.1443 69.397 59.7328V61.3805C69.5156 61.969 69.8717 62.3221 70.3463 62.3221Z" fill="#0A6DC9"/>
<path d="M43.4081 35.6057C43.2894 35.6057 43.1707 35.6057 43.0521 35.6057C42.1027 35.3703 41.5093 34.4288 41.7467 33.4872L41.8653 32.8988C42.1027 31.9572 43.0521 31.3688 44.0014 31.6042C44.9508 31.8395 45.5441 32.7811 45.3068 33.7226L45.1881 34.3111C44.9508 35.1349 44.2388 35.6057 43.4081 35.6057Z" fill="#0A6DC9"/>
<path d="M45.1882 29.1327C44.9509 29.1327 44.8322 29.1327 44.5948 29.015C43.6455 28.6619 43.1708 27.7204 43.4081 26.7788C43.5268 26.4257 43.6455 25.955 43.7642 25.6019C44.1202 24.6604 45.0695 24.1896 46.0189 24.5427C46.9683 24.8957 47.4429 25.8373 47.0869 26.7788C46.9683 27.1319 46.8496 27.6027 46.7309 27.9557C46.6122 28.6619 45.9002 29.1327 45.1882 29.1327ZM47.799 22.3065C47.5616 22.3065 47.3243 22.3065 47.0869 22.1888C46.1376 21.8357 45.7816 20.7765 46.1376 19.8349C46.2562 19.4819 46.4936 19.0111 46.6123 18.658C46.9683 17.7165 48.0363 17.3634 48.9857 17.8342C49.935 18.1872 50.291 19.2465 49.8164 20.188C49.6977 20.5411 49.4603 20.8942 49.3417 21.2473C49.1043 21.8357 48.511 22.3065 47.799 22.3065ZM51.2404 15.7157C50.8844 15.7157 50.6471 15.598 50.291 15.4803C49.4603 15.0095 49.223 13.9503 49.6977 13.0088C49.935 12.6557 50.1724 12.3026 50.4097 11.9495C50.8844 11.1257 52.0711 10.8903 52.9018 11.3611C53.7325 11.8318 53.9698 13.0088 53.4952 13.8326C53.2578 14.1857 53.0205 14.5388 52.9018 14.8918C52.4271 15.3626 51.8338 15.7157 51.2404 15.7157ZM55.3939 9.59566C55.0379 9.59566 54.5632 9.47797 54.3259 9.24259C53.6138 8.65412 53.4952 7.47719 54.0885 6.77104C54.3259 6.41796 54.6819 6.06488 54.9192 5.82949C55.5126 5.12333 56.6993 5.00564 57.4113 5.59411C58.1233 6.18257 58.242 7.3595 57.6486 8.06566C57.4113 8.41874 57.1739 8.65412 56.9366 9.0072C56.4619 9.36028 55.9872 9.59566 55.3939 9.59566ZM60.4967 4.29948C60.022 4.29948 59.5474 4.0641 59.1914 3.71102C58.4793 3.00486 58.598 1.82793 59.31 1.23947C59.666 1.00408 59.9034 0.651006 60.2594 0.41562C60.9714 -0.172844 62.1581 -0.172844 62.7515 0.651006C63.3448 1.35716 63.3448 2.53409 62.5141 3.12256C62.1581 3.35794 61.9208 3.59333 61.5648 3.94641C61.3274 4.18179 60.9714 4.29948 60.4967 4.29948Z" fill="#0A6DC9"/>
</svg>
