<svg width="131" height="120" viewBox="0 0 131 120" fill="none" xmlns="http://www.w3.org/2000/svg">
<path d="M45.3227 70.641C45.3227 69.6395 44.4425 68.7632 43.4365 68.7632C42.4305 68.7632 41.5503 69.6395 41.5503 70.641C41.5503 71.6425 42.4305 72.5188 43.4365 72.5188C44.5682 72.5188 45.3227 71.6425 45.3227 70.641Z" fill="#0066C5"/>
<path d="M43.5622 79.1533C44.5682 79.1533 45.4485 78.277 45.4485 77.2755C45.4485 76.274 44.5682 75.3977 43.5622 75.3977C42.5563 75.3977 41.676 76.274 41.676 77.2755C41.676 78.277 42.4305 79.1533 43.5622 79.1533Z" fill="#0066C5"/>
<path d="M58.9035 83.4105C58.5262 81.6579 57.5203 80.1557 56.0113 79.1542C54.5023 78.1527 52.7419 77.7771 50.9814 78.1527L36.1432 81.2823C35.3887 81.4075 34.7599 82.2839 35.0114 83.035C35.2629 83.7861 36.0174 84.412 36.7719 84.1617L51.4844 81.1572C52.4904 80.9068 53.4963 81.1572 54.2508 81.6579C55.1311 82.1587 55.6341 83.035 55.8856 84.0365L59.7837 102.564C60.161 104.567 58.9035 106.57 56.8915 106.946L45.0713 109.324C44.5683 108.072 43.688 106.946 42.682 106.069C43.0593 105.444 43.0593 104.692 42.5563 104.066C36.3947 98.3078 33.1252 90.5462 33.1252 82.1587C33.1252 80.9068 33.251 79.6549 33.3767 78.403C33.5025 77.5267 32.8737 76.7756 32.1192 76.7756C31.3648 76.6504 30.4845 77.2764 30.4845 78.0275C30.3588 79.4045 30.233 80.7816 30.233 82.1587C30.233 90.9218 33.6282 99.059 39.6641 105.318L35.3887 110.576C27.8438 103.065 23.4427 92.7996 23.4427 82.1587V69.7651C23.4427 66.0095 26.4606 63.005 30.233 63.005H30.8618L38.5324 70.391C38.7839 70.6414 39.1611 70.7666 39.5384 70.7666H39.6641C40.0413 70.7666 40.5443 70.5162 40.7958 70.1407L43.8138 66.385L46.8317 70.1407C47.0832 70.5162 47.4605 70.6414 47.9634 70.6414H48.0892C48.4664 70.6414 48.8437 70.5162 49.0952 70.2659L57.0173 62.8798H57.646C59.4065 62.8798 61.167 63.6309 62.4244 64.8828C63.6819 66.1347 64.4364 67.8873 64.4364 69.6399C64.4364 70.5162 65.0651 71.1422 65.9454 71.1422C66.8256 71.1422 67.4543 70.5162 67.4543 69.6399C67.4543 67.011 66.4483 64.6324 64.5621 62.7546C62.6759 60.8768 60.2867 59.8753 57.646 59.8753H56.7658L52.4904 57.9975V53.1152L57.143 43.7261C57.2688 43.7261 57.3945 43.7261 57.646 43.7261C60.2867 43.7261 62.5502 41.5979 62.5502 38.8438C62.5502 36.966 61.5442 35.4638 60.0352 34.5874C60.5382 28.7036 59.5322 24.3221 56.64 21.6931C54.1251 19.3146 50.9814 18.939 49.3467 19.0642C48.9694 18.3131 48.2149 17.3116 47.0832 16.4353C44.8198 14.933 41.4246 14.5575 37.2749 15.559C30.8618 17.0612 28.5983 21.8183 27.9696 28.7036C27.8438 29.3296 27.7181 30.0807 27.7181 30.7066C27.7181 30.957 27.7181 31.2074 27.7181 31.4578C27.7181 32.2089 27.7181 33.0852 27.7181 33.9615V34.0867C27.7181 34.2119 27.7181 34.3371 27.7181 34.4623C26.2091 35.3386 25.0774 36.966 25.0774 38.7186C25.0774 41.4727 27.4666 43.7261 30.233 43.6009L35.0114 53.2404V57.8723L31.1133 60.0005H30.233C24.8259 60.0005 20.4247 64.382 20.4247 69.7651V82.1587C20.4247 83.035 20.4247 84.0365 20.5505 84.9128C20.1732 85.1632 19.9217 85.4135 19.6702 85.6639C17.9098 87.2913 17.281 89.5447 17.6583 91.9233L21.5564 110.451C22.1852 113.581 24.8259 115.709 27.9696 115.834C28.7241 115.834 29.4785 115.208 29.4785 114.332C29.4785 113.456 28.8498 112.83 27.9696 112.83C26.2091 112.83 24.7001 111.578 24.4486 109.825L20.4247 91.2973C20.299 90.421 20.4247 89.6699 20.802 88.9188C22.0594 97.5567 26.0834 105.694 32.245 112.078C32.1192 112.078 31.9935 112.078 31.8677 112.078C31.1133 112.329 30.6103 113.08 30.736 113.956C31.6163 117.336 34.5084 119.59 38.0294 119.59C42.0533 119.59 45.4485 116.335 45.5742 112.329L57.3945 109.95C61.0412 109.199 63.4304 105.569 62.6759 101.938L58.9035 83.4105ZM39.5384 39.5949C39.5384 39.8453 39.5384 39.9705 39.5384 40.0957C39.5384 41.3476 38.5324 42.4742 37.1492 42.4742C36.5204 42.4742 35.8917 42.2239 35.5144 41.8483C35.0114 41.3476 34.8857 40.8468 34.8857 40.2209C34.8857 38.969 35.8917 37.8423 37.2749 37.8423C37.9036 37.8423 38.5324 38.0927 38.9096 38.4682C39.2869 38.7186 39.5384 39.0942 39.5384 39.5949ZM37.2749 45.3536C40.1671 45.3536 42.682 42.975 42.682 39.9705C42.682 39.8453 42.682 39.5949 42.682 39.4697C42.682 38.969 43.0593 38.5934 43.5623 38.5934C44.0653 38.5934 44.4425 38.969 44.4425 39.4697C44.4425 39.5949 44.4425 39.8453 44.4425 39.9705C44.4425 41.3476 44.9455 42.7246 45.9515 43.7261C46.9575 44.7276 48.3407 45.2284 49.7239 45.2284C51.3586 45.2284 52.8676 44.4772 53.8736 43.2254L49.5982 51.9885C49.5982 51.9885 49.5982 51.9885 49.5982 52.1137C48.4664 54.3671 46.203 55.7441 43.688 55.7441C41.1731 55.7441 38.9096 54.3671 37.7779 52.1137C37.7779 52.1137 37.7779 51.9885 37.6521 51.9885L33.5025 43.4757L33.6282 43.6009C34.5084 44.8528 35.8917 45.3536 37.2749 45.3536ZM47.4605 39.5949C47.5862 39.0942 47.8377 38.7186 48.0892 38.3431C48.5922 37.8423 49.0952 37.7171 49.7239 37.7171C50.3527 37.7171 50.9814 37.9675 51.3586 38.3431C51.8616 38.8438 51.9874 39.3446 51.9874 39.9705C51.9874 41.2224 50.9814 42.3491 49.5982 42.3491C48.9694 42.3491 48.3407 42.0987 47.9634 41.7231C47.4605 41.2224 47.3347 40.7216 47.3347 40.0957C47.3347 39.9705 47.3347 39.7201 47.4605 39.5949ZM37.7779 56.996C39.4126 58.2479 41.4246 58.8738 43.5623 58.8738C45.7 58.8738 47.8377 58.1227 49.4724 56.8708V57.9975L43.5623 62.2539L37.7779 58.1227V56.996ZM47.8377 67.1362L45.5742 64.382L50.9814 60.6264L53.3706 62.0035L47.8377 67.1362ZM37.7779 18.4383C41.0473 17.6871 43.5623 17.8123 45.197 18.8138C46.203 19.4398 46.4545 20.1909 46.706 20.5664L45.8257 24.0717C45.5742 24.8228 46.0772 25.6991 46.9575 25.8243C47.0832 25.8243 47.209 25.8243 47.3347 25.8243C47.9634 25.8243 48.5922 25.3236 48.8437 24.6976L49.4724 21.9435C50.7299 21.9435 52.8676 22.1939 54.5023 23.8213C55.7598 25.0732 56.64 26.951 56.8915 29.3296C55.0053 27.5769 52.4904 26.5754 49.8497 26.5754C48.7179 26.5754 47.712 26.7006 46.706 27.0762C45.197 23.4458 41.5503 20.8168 37.5264 20.8168C37.0234 20.8168 36.3947 20.8168 35.8917 20.942C34.7599 21.1924 33.6282 21.5679 32.6222 22.0687C33.6282 20.0657 35.2629 18.939 37.7779 18.4383ZM30.3588 40.5964C28.9756 41.0972 27.9696 40.0957 27.9696 38.8438C27.9696 37.9675 28.5983 37.2164 29.3528 37.0912C30.1073 36.966 30.6103 36.3401 30.4845 35.5889V35.2134C30.4845 35.0882 30.4845 34.963 30.4845 34.8378C30.4845 34.2119 30.4845 33.5859 30.6103 32.8348C30.6103 32.8348 30.6103 32.8348 30.6103 32.7096C31.239 29.0792 33.251 25.8243 36.3947 23.8213C36.7719 23.8213 37.0234 23.6961 37.2749 23.6961C40.5443 23.6961 43.4365 26.0747 44.0653 29.2044C44.191 29.7051 44.4425 30.0807 44.9455 30.3311C45.4485 30.5814 45.9515 30.4563 46.3287 30.3311C47.3347 29.7051 48.5922 29.4548 49.7239 29.4548C52.9934 29.4548 55.8856 31.8333 56.5143 34.963V35.0882V35.4638C56.5143 35.5889 56.5143 35.7141 56.5143 35.8393C56.64 36.3401 57.0173 36.7156 57.5203 36.8408C57.5203 36.8408 57.646 36.8408 57.646 36.966H57.7718C58.652 37.0912 59.2807 37.8423 59.2807 38.7186C59.2807 39.9705 58.0233 40.8468 56.7658 40.3461C56.0113 40.0957 55.2568 40.3461 54.8796 40.972C55.0053 40.5964 55.0053 40.2209 55.0053 39.8453C55.0053 38.4682 54.5023 37.0912 53.4963 36.0897C52.4904 35.0882 51.1071 34.4623 49.7239 34.4623C48.3407 34.4623 46.9575 34.963 45.9515 35.9645C45.9515 35.9645 45.9515 36.0897 45.8257 36.0897C45.197 35.5889 44.3168 35.3386 43.4365 35.3386C42.5563 35.3386 41.8018 35.5889 41.1731 36.0897C41.1731 36.0897 41.1731 35.9645 41.0473 35.9645C40.0413 34.963 38.6581 34.4623 37.2749 34.4623C34.3827 34.4623 31.8677 36.8408 31.8677 39.8453C31.8677 40.2209 31.8677 40.5964 31.9935 40.8468C31.6163 40.5964 30.9875 40.3461 30.3588 40.5964ZM36.1432 60.6264L41.2988 64.382L39.1611 67.1362L33.754 61.8783L36.1432 60.6264ZM38.1551 116.585C36.2689 116.585 34.6342 115.459 34.0055 113.706C34.1312 113.831 34.257 113.956 34.3827 114.081C34.5084 114.207 34.5084 114.207 34.6342 114.207L34.7599 114.332C34.8857 114.332 35.1372 114.457 35.2629 114.457C35.5144 114.457 35.6402 114.457 35.7659 114.332C35.8917 114.207 36.1432 114.081 36.2689 113.956L40.5443 108.573C41.5503 109.324 42.1791 110.326 42.3048 111.453C42.3048 111.703 42.3048 111.953 42.3048 112.078C42.5563 114.582 40.5443 116.585 38.1551 116.585Z" fill="#0066C5"/>
<path d="M41.2988 99.6843C40.9215 99.8095 40.7958 100.31 40.9215 100.686C41.0473 100.936 41.2988 101.187 41.676 101.187C41.8017 101.187 41.9275 101.187 41.9275 101.187C43.5622 100.435 44.6939 98.808 44.6939 97.0554C44.6939 95.8035 44.1909 94.6768 43.4365 93.9257C42.5562 93.0494 41.4245 92.6738 40.2928 92.6738C39.0353 92.6738 37.9036 93.1746 37.0233 94.0509C36.7718 94.3013 36.7718 94.802 37.0233 95.0524C37.2748 95.3028 37.7778 95.3028 38.0293 95.0524C38.5323 94.4265 39.4125 94.1761 40.167 94.1761C40.9215 94.1761 41.676 94.4265 42.3047 95.0524C42.8077 95.5531 43.185 96.3043 43.185 97.1806C43.0592 98.1821 42.3047 99.1836 41.2988 99.6843Z" fill="#0066C5"/>
<path d="M112.148 85.0051C111.896 84.7548 111.519 84.5044 111.268 84.254C111.268 83.3777 111.393 82.3762 111.393 81.4999V69.1063C111.393 64.4744 108.25 60.7188 103.849 59.7173V34.1791C103.849 29.9227 102.214 25.9167 99.1959 22.9122C98.8186 22.5366 98.4414 22.2863 98.1899 21.9107C98.0641 21.9107 98.0641 21.7855 97.9384 21.7855C95.0462 19.5321 91.651 18.2803 87.8786 18.2803C87.3756 18.2803 86.9983 18.2803 86.4953 18.4055C86.2439 18.4055 85.9924 18.4055 85.7409 18.5306C85.4894 18.5306 85.2379 18.6558 84.9864 18.6558C84.7349 18.6558 84.3576 18.781 84.1061 18.781H83.9804H83.8546C83.4774 18.9062 82.9744 19.0314 82.5972 19.1566C82.4714 19.1566 82.4714 19.1566 82.3457 19.2818C81.9684 19.407 81.5912 19.5321 81.2139 19.7825C81.2139 19.7825 81.2139 19.7825 81.0882 19.7825C80.9625 19.7825 80.8367 19.9077 80.8367 19.9077C80.3337 20.1581 79.9565 20.4085 79.5792 20.6588C79.4535 20.784 79.202 20.784 79.0762 20.9092C78.8247 21.0344 78.699 21.1596 78.4475 21.2848C78.3217 21.41 78.0703 21.5351 77.9445 21.6603C77.8188 21.7855 77.5673 21.9107 77.4415 22.1611C77.3158 22.2863 77.0643 22.4115 76.9385 22.6618C76.687 22.9122 76.4355 23.1626 76.184 23.413C76.0583 23.5381 75.8068 23.7885 75.681 23.9137C75.5553 24.1641 75.3038 24.2893 75.1781 24.5396C75.0523 24.6648 74.9266 24.79 74.8008 25.0404C74.6751 25.2908 74.5493 25.416 74.2978 25.6663C74.1721 25.7915 74.1721 25.9167 74.0463 26.0419C73.7948 26.4175 73.5433 26.9182 73.4176 27.2938C73.2918 27.419 73.2918 27.6693 73.1661 27.7945C73.0403 28.0449 72.9146 28.2953 72.9146 28.5456C72.7888 28.796 72.7888 28.9212 72.6631 29.1716C72.5374 29.4219 72.5374 29.5471 72.4116 29.7975C72.2859 30.1731 72.1601 30.5486 72.1601 31.0494C72.1601 31.1746 72.1601 31.4249 72.0344 31.5501C72.0344 31.9257 71.9086 32.1761 71.9086 32.5516C71.9086 32.6768 71.9086 32.802 71.9086 33.0524C71.9086 33.5531 71.7829 34.0539 71.7829 34.4294V40.5636V60.0929C67.6332 61.2195 64.4895 64.9752 64.4895 69.4819V82.6266C64.4895 83.5029 65.1182 84.1288 65.9985 84.1288C66.8787 84.1288 67.5074 83.5029 67.5074 82.6266V69.4819C67.5074 65.7263 70.5254 62.7218 74.2978 62.7218H75.0523L86.9983 71.6101C87.1241 71.7353 87.2498 71.7353 87.3756 71.7353H87.5013C87.6271 71.7353 87.7528 71.8605 87.8786 71.8605C88.0043 71.8605 88.1301 71.8605 88.2558 71.8605H88.3816C88.5073 71.8605 88.6331 71.7353 88.6331 71.7353C88.6331 71.7353 88.6331 71.7353 88.7588 71.7353L100.831 62.7218H101.585H101.711C101.962 62.847 102.088 62.847 102.34 62.847C102.465 62.847 102.591 62.847 102.591 62.847C105.86 63.3477 108.25 66.1019 108.25 69.4819V81.8755C108.25 92.5164 103.974 102.782 96.3037 110.293L92.154 104.66C98.1899 98.4002 101.585 90.263 101.585 81.4999C101.585 80.1228 101.459 78.7458 101.334 77.3687C101.208 76.4924 100.453 75.9917 99.6989 76.1168C98.8186 76.242 98.3156 76.9932 98.4414 77.7443C98.5671 78.9962 98.6929 80.248 98.6929 81.4999C98.6929 89.8875 95.2977 97.6491 89.2618 103.408C88.7588 103.908 88.6331 104.785 89.136 105.411C88.0043 106.287 87.2498 107.289 86.7468 108.666L74.9266 106.287C73.9206 106.037 73.1661 105.536 72.5374 104.66C72.0344 103.783 71.7829 102.782 72.0344 101.905L75.9325 83.3777C76.184 82.3762 76.687 81.6251 77.5673 80.9992C78.4475 80.4984 79.4535 80.248 80.3337 80.4984L95.9264 83.7533C96.8067 83.8785 97.5611 83.3777 97.6869 82.6266C97.8126 81.8755 97.3096 80.9992 96.5552 80.874L90.0163 79.4969C90.0163 79.1213 89.8905 78.871 89.8905 78.4954C89.8905 77.6191 89.2618 76.9932 88.3816 76.9932C88.3816 76.9932 88.3816 76.9932 88.2558 76.9932C88.2558 76.9932 88.2558 76.9932 88.1301 76.9932C87.2498 76.9932 86.6211 77.6191 86.6211 78.4954C86.6211 78.6206 86.6211 78.7458 86.6211 78.7458L80.5852 77.4939C78.8247 77.1183 77.0643 77.4939 75.5553 78.4954C75.1781 78.7458 74.8008 79.1213 74.4236 79.4969C74.4236 79.1213 74.2978 78.871 74.2978 78.4954C74.2978 77.6191 73.6691 76.9932 72.7888 76.9932C71.9086 76.9932 71.2799 77.6191 71.2799 78.4954C71.2799 80.1228 71.7829 81.7503 72.5374 83.1273L68.7649 101.28C68.3877 103.032 68.7649 104.785 69.7709 106.287C70.7769 107.789 72.2859 108.791 74.0463 109.166L85.8666 111.67C85.9924 115.676 89.2618 118.931 93.4115 118.931C96.9324 118.931 99.8246 116.552 100.705 113.298C100.956 112.546 100.453 111.67 99.5731 111.42C99.4474 111.42 99.3216 111.42 99.1959 111.42C105.357 105.035 109.381 97.0231 110.765 88.26C111.142 89.0111 111.268 89.8875 111.142 90.6386L107.244 109.041C106.866 110.794 105.357 111.92 103.723 112.046C102.843 112.046 102.214 112.797 102.214 113.548C102.214 114.424 102.843 115.05 103.723 115.05C106.866 114.925 109.507 112.797 110.136 109.667L114.034 91.1393C114.537 88.886 113.783 86.6326 112.148 85.0051ZM96.6809 57.2136V52.3312L100.831 43.9437V59.3417H100.579L96.6809 57.2136ZM75.0523 59.3417H74.6751V43.9437L78.9505 52.5816V57.2136L75.0523 59.3417ZM74.8008 32.5516C74.8008 32.4264 74.8008 32.3013 74.8008 32.1761C74.8008 31.8005 74.9266 31.4249 75.0523 31.0494C75.0523 30.9242 75.0523 30.799 75.1781 30.6738C75.3038 30.2983 75.4295 29.7975 75.5553 29.422V29.2968C75.9325 28.2953 76.4355 27.419 77.0643 26.5426L77.19 26.4175C77.4415 26.0419 77.693 25.6663 78.0703 25.2908L78.196 25.1656C78.9505 24.4145 79.705 23.7885 80.5852 23.1626C80.5852 23.2878 80.711 23.413 80.711 23.413C80.8367 23.9137 81.0882 24.5396 81.3397 25.0404C81.4654 25.2908 81.4654 25.416 81.5912 25.6663C81.8427 26.1671 81.9684 26.5426 82.2199 27.0434C82.3457 27.1686 82.3457 27.2938 82.3457 27.419C81.0882 31.2998 78.3217 34.9302 74.5493 37.4339V33.9287C74.6751 33.5531 74.8008 33.0524 74.8008 32.5516ZM84.6091 21.5351C84.6091 21.5351 84.6091 21.41 84.6091 21.5351C85.7409 21.2848 86.8726 21.1596 87.8786 21.1596C88.1301 21.1596 88.5073 21.1596 88.7588 21.1596C88.8846 21.1596 89.0103 21.1596 89.2618 21.1596C89.639 21.1596 90.0163 21.2848 90.2678 21.2848H90.3935C91.5253 21.5351 92.5312 21.9107 93.5372 22.4115C93.663 22.5366 93.7887 22.5366 93.9145 22.6618C94.166 22.787 94.4175 22.9122 94.5432 23.0374C94.7947 23.1626 95.0462 23.2878 95.1719 23.5381C95.2977 23.6633 95.5492 23.7885 95.6749 23.9137C96.0522 24.1641 96.4294 24.5396 96.8067 24.9152C99.3216 27.419 100.579 30.6738 100.579 34.0539V37.6843C96.4294 37.0584 92.2797 34.805 88.8846 31.5501C87.3756 30.0479 86.1181 28.4205 85.1121 26.5426C84.8606 26.0419 84.6091 25.6663 84.3576 25.1656C84.3576 25.0404 84.2319 24.9152 84.2319 24.79C84.1061 24.4145 83.9804 24.1641 83.8546 23.7885C83.8546 23.6633 83.7289 23.5381 83.7289 23.2878C83.6031 22.9122 83.4774 22.6618 83.3517 22.2863C83.3517 22.1611 83.2259 22.0359 83.2259 21.9107C83.2259 21.7855 83.2259 21.7855 83.2259 21.6603C83.8546 21.6603 84.2319 21.5351 84.6091 21.5351ZM93.7887 51.4549C93.7887 51.4549 93.7887 51.5801 93.663 51.5801C92.5312 53.8335 90.2678 55.2105 87.7528 55.2105C85.2379 55.2105 82.9744 53.8335 81.8427 51.5801C81.8427 51.5801 81.8427 51.4549 81.7169 51.4549L79.0762 45.9467H85.6151C85.9924 45.9467 86.3696 45.5711 86.3696 45.1956V43.0674C86.3696 42.3162 86.9983 41.6903 87.7528 41.6903C88.1301 41.6903 88.5073 41.8155 88.7588 42.0659C89.0103 42.3163 89.136 42.6918 89.136 43.0674V45.1956C89.136 45.4459 89.2618 45.5711 89.3875 45.6963C89.5133 45.8215 89.7648 45.9467 89.8905 45.9467H96.3037L93.7887 51.4549ZM84.4834 30.6738C85.2379 31.8005 86.1181 32.802 86.9983 33.6783C88.6331 35.3058 90.5193 36.6828 92.5312 37.8095C91.9025 38.0599 91.3995 38.6858 91.3995 39.4369C91.3995 39.8125 91.5253 40.0629 91.651 40.4384H90.0163C89.8905 40.4384 89.7648 40.4384 89.639 40.5636C89.136 40.1881 88.5073 39.9377 87.8786 39.9377C87.2498 39.9377 86.6211 40.1881 86.1181 40.5636C85.9924 40.4384 85.8666 40.4384 85.7409 40.4384H84.1061C84.2319 40.1881 84.3576 39.8125 84.3576 39.4369C84.3576 38.6858 83.8546 37.9347 83.1002 37.6843C82.9744 37.4339 82.7229 37.3088 82.4714 37.3088H79.705C79.705 37.3088 79.705 37.3088 79.5792 37.3088C81.7169 35.5561 83.3517 33.1776 84.4834 30.6738ZM97.5611 43.8185L97.1839 44.4444H90.7708V42.0659H97.5611V43.8185ZM77.8188 43.4429V42.0659H84.8606V42.9422V44.3193H78.3217L77.8188 43.4429ZM79.705 38.9362H80.711C80.5852 39.1866 80.5852 39.3118 80.5852 39.5621C80.5852 39.9377 80.711 40.3133 80.8367 40.5636H77.0643C76.8128 40.5636 76.687 40.6888 76.5613 40.814L76.4355 40.5636C76.3098 40.4384 76.184 40.3133 76.184 40.1881L76.3098 40.0629C77.19 39.4369 78.0703 38.6858 78.9505 38.0599V38.1851C78.9505 38.6858 79.202 38.9362 79.705 38.9362ZM98.9444 40.9392C98.9444 40.9392 98.9444 40.814 98.8186 40.814C98.6929 40.6888 98.4414 40.5636 98.3156 40.5636H94.9204C95.0462 40.3133 95.1719 39.9377 95.1719 39.5621C95.1719 39.4369 95.1719 39.3118 95.1719 39.1866C96.5552 39.6873 97.8126 40.1881 99.1959 40.4384L98.9444 40.9392ZM81.9684 56.2121C83.6032 57.4639 85.6151 58.0899 87.7528 58.0899C89.8905 58.0899 92.0282 57.3387 93.663 56.0869V57.2136L87.6271 61.7203L81.9684 57.2136V56.2121ZM87.7528 68.23L78.196 60.9692L80.3337 59.8425L86.6211 64.85C86.8726 65.1004 87.2498 65.2255 87.6271 65.2255C88.0043 65.2255 88.2558 65.1004 88.5073 64.9752L95.2977 59.8425L97.4354 60.9692L87.7528 68.23ZM93.4115 115.801C90.8965 115.801 88.8846 113.798 88.8846 111.295C88.8846 111.044 88.8846 110.794 88.8846 110.669C89.0103 109.542 89.7648 108.415 90.645 107.789L94.9204 113.172C95.0462 113.298 95.1719 113.423 95.4234 113.548C95.5492 113.673 95.8007 113.673 95.9264 113.673C96.0522 113.673 96.3037 113.673 96.4294 113.548L96.5552 113.423C96.6809 113.423 96.6809 113.298 96.8067 113.298C96.9324 113.172 97.0582 113.047 97.1839 113.047C96.9324 114.675 95.2977 115.801 93.4115 115.801Z" fill="#0066C5"/>
<path d="M80.1917 92.4944C81.0719 92.4944 81.8264 92.87 82.3294 93.3707C82.5809 93.6211 83.0839 93.6211 83.3354 93.3707C83.5869 93.1204 83.5869 92.6196 83.3354 92.3692C82.4552 91.4929 81.3234 90.9922 80.066 90.9922C78.8085 90.9922 77.8025 91.4929 76.9223 92.2441C76.042 93.1204 75.6648 94.2471 75.6648 95.3737C75.6648 97.1264 76.6708 98.7538 78.4312 99.5049C78.557 99.5049 78.6827 99.5049 78.6827 99.5049C78.9342 99.5049 79.3115 99.3797 79.4372 99.0042C79.563 98.6286 79.4372 98.1279 79.06 98.0027C77.9283 97.5019 77.2995 96.5004 77.2995 95.2486C77.2995 94.4974 77.551 93.7463 78.1797 93.1204C78.6827 92.7448 79.4372 92.4944 80.1917 92.4944Z" fill="#0066C5"/>
</svg>
