<svg width="131" height="120" viewBox="0 0 131 120" fill="none" xmlns="http://www.w3.org/2000/svg">
<g clip-path="url(#clip0)">
<path d="M18.6759 39.0622C18.5749 39.0622 18.3728 39.0622 18.2718 38.9642L4.22742 32.8935C3.62119 32.5998 3.41911 32.1102 3.62119 31.6206C3.9243 31.0332 4.53054 30.8373 5.03573 31.0332L19.1811 37.1039C19.6863 37.2997 19.8884 37.8872 19.6863 38.3768C19.4842 38.8663 19.0801 39.0622 18.6759 39.0622Z" fill="#0066C5"/>
<path d="M107.791 39.16C107.387 39.16 107.084 38.9642 106.882 38.5726C106.68 38.083 106.882 37.4955 107.387 37.2997L115.268 33.8726C115.773 33.6768 116.38 33.8726 116.582 34.3622C116.784 34.8518 116.582 35.4393 116.077 35.6351L108.196 39.0621C107.994 39.16 107.893 39.16 107.791 39.16Z" fill="#0066C5"/>
<path d="M119.714 34.2645C119.31 34.2645 119.007 34.0687 118.805 33.677C118.603 33.1875 118.805 32.6 119.31 32.4041L126.989 29.075C127.494 28.8792 128.1 29.075 128.302 29.5646C128.504 30.0542 128.302 30.6417 127.797 30.8375L120.118 34.1666C119.916 34.2645 119.815 34.2645 119.714 34.2645Z" fill="#0066C5"/>
<path d="M15.2404 56.0989H-2.54235C-3.14858 56.0989 -3.55273 55.7073 -3.55273 55.1198C-3.55273 54.5323 -3.14858 54.1406 -2.54235 54.1406H15.2404C15.8466 54.1406 16.2508 54.5323 16.2508 55.1198C16.2508 55.7073 15.7456 56.0989 15.2404 56.0989Z" fill="#0066C5"/>
<path d="M134.061 56.0989H118.299C117.693 56.0989 117.289 55.7073 117.289 55.1198C117.289 54.5323 117.693 54.1406 118.299 54.1406H134.061C134.668 54.1406 135.072 54.5323 135.072 55.1198C135.072 55.7073 134.668 56.0989 134.061 56.0989Z" fill="#0066C5"/>
<path d="M65.4056 11.0101L65.4056 26.7721C65.4056 27.3783 65.0139 27.7825 64.4264 27.7825C63.8389 27.7825 63.4473 27.3783 63.4473 26.7721L63.4473 11.0101C63.4473 10.4039 63.8389 9.9997 64.4264 9.9997C65.0139 9.9997 65.4056 10.4039 65.4056 11.0101Z" fill="#0066C5"/>
<path d="M113.652 100.356H114.965C115.37 100.356 115.673 100.65 115.673 101.041C115.673 101.433 115.37 101.727 114.965 101.727H113.652C113.248 101.727 112.945 101.433 112.945 101.041C112.945 100.65 113.248 100.356 113.652 100.356ZM112.237 101.041C112.237 100.65 111.934 100.356 111.53 100.356H110.217C109.812 100.356 109.509 100.65 109.509 101.041C109.509 101.433 109.812 101.727 110.217 101.727H111.53C111.934 101.727 112.237 101.433 112.237 101.041ZM112.54 101.433C112.136 101.433 111.833 101.727 111.833 102.119V103.391C111.833 103.783 112.136 104.077 112.54 104.077C112.945 104.077 113.248 103.783 113.248 103.391V102.119C113.349 101.727 112.945 101.433 112.54 101.433ZM111.833 98.6915V99.9644C111.833 100.356 112.136 100.65 112.54 100.65C112.945 100.65 113.248 100.356 113.248 99.9644V98.6915C113.248 98.2998 112.945 98.0061 112.54 98.0061C112.237 98.0061 111.833 98.2998 111.833 98.6915Z" fill="#0066C5"/>
<path d="M54.5898 25.3497H55.9033C56.3075 25.3497 56.6106 25.6435 56.6106 26.0351C56.6106 26.4268 56.3075 26.7205 55.9033 26.7205H54.5898C54.1857 26.7205 53.8826 26.4268 53.8826 26.0351C53.8826 25.6435 54.1857 25.3497 54.5898 25.3497ZM53.1753 26.0351C53.1753 25.6435 52.8722 25.3497 52.468 25.3497H51.1545C50.7504 25.3497 50.4473 25.6435 50.4473 26.0351C50.4473 26.4268 50.7504 26.7205 51.1545 26.7205H52.468C52.8722 26.7205 53.1753 26.4268 53.1753 26.0351ZM53.4784 26.4268C53.0743 26.4268 52.7711 26.7205 52.7711 27.1122V28.3851C52.7711 28.7767 53.0743 29.0705 53.4784 29.0705C53.8826 29.0705 54.1857 28.7767 54.1857 28.3851V27.1122C54.2867 26.7205 53.8826 26.4268 53.4784 26.4268ZM52.7711 23.6852V24.9581C52.7711 25.3497 53.0743 25.6435 53.4784 25.6435C53.8826 25.6435 54.1857 25.3497 54.1857 24.9581V23.6852C54.1857 23.2935 53.8826 22.9998 53.4784 22.9998C53.1753 22.9998 52.7711 23.2935 52.7711 23.6852Z" fill="#0066C5"/>
<path d="M103.548 106.82C103.548 107.407 103.75 107.897 104.154 108.288C104.558 108.68 105.164 108.876 105.771 108.876C106.377 108.876 106.882 108.68 107.286 108.288C107.69 107.897 107.893 107.309 107.893 106.722C107.893 105.547 106.882 104.568 105.67 104.568C104.558 104.666 103.548 105.645 103.548 106.82Z" fill="#0066C5"/>
<path d="M41.4473 32.2518C41.4473 32.8393 41.6493 33.3289 42.0535 33.7205C42.4576 34.1122 43.0639 34.308 43.6701 34.308C44.2763 34.308 44.7815 34.1122 45.1857 33.7205C45.5898 33.3289 45.7919 32.7414 45.7919 32.1539C45.7919 30.9789 44.7815 29.9998 43.5691 29.9998C42.4576 30.0977 41.4473 31.0768 41.4473 32.2518Z" fill="#0066C5"/>
<path d="M99.8096 88.0192C102.234 88.4108 104.053 90.3691 104.053 92.817C104.053 95.2649 102.234 97.2231 99.8096 97.6148V101.825C104.558 101.433 108.398 97.5169 108.398 92.817C108.398 88.1171 104.659 84.2005 99.8096 83.8088V88.0192Z" fill="#0066C5"/>
<path d="M22.7174 94.2859C19.8883 94.2859 17.5645 92.0338 17.5645 89.2922C17.5645 86.5506 19.8883 84.2986 22.7174 84.2986C24.1319 84.2986 25.3444 84.7882 26.3548 85.7673C27.3652 86.7465 27.8704 87.9214 27.8704 89.2922C27.8704 90.663 27.3652 91.838 26.3548 92.8172C25.3444 93.7963 24.0309 94.2859 22.7174 94.2859ZM22.7174 91.3484C23.3236 91.3484 23.8288 91.1526 24.233 90.761C24.6371 90.3693 24.8392 89.8797 24.8392 89.2922C24.8392 88.7047 24.6371 88.2152 24.233 87.8235C23.8288 87.4319 23.3236 87.236 22.7174 87.236C21.606 87.236 20.5956 88.1173 20.5956 89.2922C20.5956 90.4672 21.505 91.3484 22.7174 91.3484Z" fill="#0066C5"/>
<path d="M90.6002 32.9871C87.7711 32.9871 85.4473 30.735 85.4473 27.9934C85.4473 25.2518 87.7711 22.9998 90.6002 22.9998C92.0148 22.9998 93.2272 23.4893 94.2376 24.4685C95.248 25.4476 95.7532 26.6226 95.7532 27.9934C95.7532 29.3642 95.248 30.5392 94.2376 31.5183C93.2272 32.4975 91.9137 32.9871 90.6002 32.9871ZM90.6002 30.0496C91.2065 30.0496 91.7116 29.8538 92.1158 29.4621C92.52 29.0705 92.722 28.5809 92.722 27.9934C92.722 27.4059 92.52 26.9163 92.1158 26.5247C91.7116 26.133 91.2065 25.9372 90.6002 25.9372C89.4888 25.9372 88.4784 26.8184 88.4784 27.9934C88.4784 29.1684 89.3878 30.0496 90.6002 30.0496Z" fill="#0066C5"/>
<path d="M22.8183 66.5767H21.7069V65.4997C21.7069 64.9122 21.2017 64.4226 20.5955 64.4226C19.9893 64.4226 19.4841 64.9122 19.4841 65.4997V66.5767H18.3727C17.7664 66.5767 17.2612 67.0663 17.2612 67.6538C17.2612 68.2413 17.7664 68.7309 18.3727 68.7309H19.4841V69.8079C19.4841 70.3954 19.9893 70.885 20.5955 70.885C21.2017 70.885 21.7069 70.3954 21.7069 69.8079V68.7309H22.8183C23.4246 68.7309 23.9298 68.2413 23.9298 67.6538C23.9298 66.9684 23.4246 66.5767 22.8183 66.5767Z" fill="#0066C5"/>
<path d="M94.0503 80.48C93.141 80.9696 92.2316 81.3612 91.2212 81.8508C91.4233 82.3404 91.5243 82.732 91.5243 83.3195V88.1174L93.242 88.3132L91.5243 88.2153C91.2212 92.9152 87.1797 96.6359 82.3298 96.6359H69.7V93.9922C69.7 91.8381 67.8813 90.1736 65.7595 90.1736H62.8294C60.6066 90.1736 58.8889 91.936 58.8889 93.9922V96.538H46.1581C41.1062 96.538 36.9636 92.5235 36.9636 87.6278V83.0258C36.9636 82.6341 37.0646 82.3404 37.1657 81.9487C36.1553 81.4592 35.1449 80.9696 34.1345 80.48C34.1345 80.48 34.0335 80.48 34.0335 80.3821C33.7304 81.1654 33.5283 81.9487 33.4272 82.83V83.0258C33.4272 83.1237 33.4272 83.1237 33.4272 83.2216V113.086C33.4272 117.1 36.7615 120.331 40.9041 120.331H87.4828C91.6254 120.331 94.9596 117.1 94.9596 113.086V83.2216C94.9596 82.1446 94.7576 81.1654 94.3534 80.2842C94.3534 80.3821 94.2524 80.3821 94.0503 80.48ZM62.2232 93.7964C62.2232 93.5027 62.4253 93.3068 62.7284 93.3068H65.6585C65.9616 93.3068 66.1637 93.5027 66.1637 93.7964V101.042C66.1637 101.336 65.9616 101.532 65.6585 101.532H62.7284C62.4253 101.532 62.2232 101.336 62.2232 101.042V93.7964ZM91.6254 113.086C91.6254 115.24 89.8067 117.002 87.5838 117.002H41.0051C38.7823 117.002 36.9636 115.24 36.9636 113.086V95.9505C39.2875 98.3005 42.5207 99.8671 46.1581 99.8671H58.8889V101.042C58.8889 103.196 60.7076 104.861 62.8294 104.861H65.7595C67.9824 104.861 69.7 103.098 69.7 101.042V99.8671H82.4309C86.0683 99.8671 89.3015 98.3984 91.6254 96.0484V113.086Z" fill="#0066C5"/>
<path d="M64.1432 32.5391H64.0421C63.9411 32.5391 63.739 32.539 63.638 32.637L18.979 47.5201C18.1707 47.8138 17.7665 48.597 18.0696 49.3803C18.2717 49.772 18.5748 50.1637 18.979 50.2616L33.3264 55.0594V74.4466C33.3264 75.0341 33.6296 75.5236 34.1347 75.8173C53.0289 85.5108 73.0345 86.3921 94.0505 75.8173C94.5557 75.5236 94.8588 75.0341 94.8588 74.4466V55.0594L107.186 50.9471V65.9279C106.983 66.1238 106.68 66.3196 106.478 66.5154C105.872 67.1029 105.367 67.7884 104.761 68.6696C103.649 70.2362 102.639 72.0966 102.639 73.957C102.639 77.1882 105.367 79.9298 108.802 79.9298C112.136 79.9298 114.965 77.2861 114.965 73.957C114.965 72.0966 113.955 70.2362 112.945 68.6696C112.44 67.8863 111.833 67.1029 111.227 66.5154C110.924 66.2217 110.621 65.8301 110.217 65.6343V48.8908C110.217 48.2054 109.813 47.6179 109.206 47.422L76.2678 36.5535L71.2158 34.889L64.6483 32.7348C64.4463 32.539 64.3452 32.5391 64.1432 32.5391ZM64.1432 35.6723L70.2055 37.7286L75.2574 39.3931L104.053 48.9888L64.1432 62.3051L24.233 48.9888L55.6559 38.5118L78.1875 46.0513C78.9958 46.3451 79.9052 45.9534 80.2083 45.1701C80.5114 44.3868 80.1072 43.5055 79.2989 43.2118L60.5058 36.9452L64.1432 35.6723ZM85.6644 45.4637C84.856 45.4637 84.1488 46.2472 84.2498 47.0305C84.2498 47.618 84.654 48.2054 85.2602 48.4012L89.3017 49.772C90.11 50.0658 91.0194 49.6741 91.3225 48.8908C91.6256 48.1074 91.2215 47.2262 90.4132 46.9325H90.3121L86.3716 45.5618C86.2706 45.4638 86.0685 45.4637 85.9675 45.4637C85.7654 45.4637 85.7654 45.4637 85.6644 45.4637ZM36.3576 56.2344L63.5369 65.3405C63.84 65.4384 64.2442 65.4384 64.5473 65.3405L91.7267 56.2344V67.5926C72.0242 77.1882 53.9383 76.4049 36.2566 67.5926V56.2344H36.3576ZM109.004 68.9633C109.408 69.3549 109.813 69.9425 110.217 70.53C111.025 71.8029 111.732 73.5653 111.732 74.0549C111.732 75.5236 110.52 76.6986 109.004 76.6986C107.489 76.6986 106.276 75.5236 106.276 74.0549C106.276 73.5653 106.983 71.8029 107.792 70.53C108.196 69.9425 108.6 69.3549 109.004 68.9633ZM91.8277 70.9216V73.4674C72.1252 83.0631 54.0393 82.2798 36.3576 73.4674V70.9216C53.9383 79.2443 72.4283 79.9297 91.8277 70.9216Z" fill="#0066C5"/>
</g>
<defs>
<clipPath id="clip0">
<rect width="130" height="120" fill="white" transform="translate(0.447266)"/>
</clipPath>
</defs>
</svg>
